<mxfile host="app.diagrams.net" agent="Mozilla/5.0 (Windows NT 10.0; Win64; x64) AppleWebKit/537.36 (KHTML, like Gecko) Chrome/136.0.0.0 Safari/537.36" version="27.0.6">
  <diagram name="Page-1" id="fgyW4Zr4cy-g8o6_v-zb">
    <mxGraphModel dx="1489" dy="869" grid="1" gridSize="10" guides="1" tooltips="1" connect="1" arrows="1" fold="1" page="1" pageScale="1" pageWidth="850" pageHeight="1100" math="0" shadow="0">
      <root>
        <mxCell id="0" />
        <mxCell id="1" parent="0" />
        <mxCell id="8mnbJYgUBYlNlU0uqv1t-44" value="" style="group" parent="1" vertex="1" connectable="0">
          <mxGeometry x="210" y="40" width="1015" height="333" as="geometry" />
        </mxCell>
        <mxCell id="8mnbJYgUBYlNlU0uqv1t-6" value="" style="group;fontStyle=1" parent="8mnbJYgUBYlNlU0uqv1t-44" vertex="1" connectable="0">
          <mxGeometry width="846" height="333" as="geometry" />
        </mxCell>
        <mxCell id="8mnbJYgUBYlNlU0uqv1t-7" value="" style="endArrow=classic;html=1;rounded=0;exitX=0.5;exitY=1;exitDx=0;exitDy=0;entryX=0.5;entryY=1;entryDx=0;entryDy=0;" parent="8mnbJYgUBYlNlU0uqv1t-6" source="8mnbJYgUBYlNlU0uqv1t-26" target="8mnbJYgUBYlNlU0uqv1t-33" edge="1">
          <mxGeometry width="50" height="50" relative="1" as="geometry">
            <mxPoint x="736" y="190" as="sourcePoint" />
            <mxPoint x="746" y="127" as="targetPoint" />
          </mxGeometry>
        </mxCell>
        <mxCell id="8mnbJYgUBYlNlU0uqv1t-8" value="&lt;div&gt;&lt;font style=&quot;font-size: 18px;&quot;&gt;&lt;b&gt;&lt;br&gt;&lt;/b&gt;&lt;/font&gt;&lt;/div&gt;&lt;font style=&quot;font-size: 18px;&quot;&gt;&lt;div&gt;&lt;b style=&quot;background-color: initial;&quot;&gt;DATASET&lt;/b&gt;&lt;/div&gt;&lt;div&gt;&lt;b style=&quot;background-color: initial;&quot;&gt;AEEEM&lt;/b&gt;&lt;/div&gt;&lt;/font&gt;" style="strokeWidth=2;html=1;shape=mxgraph.flowchart.database;whiteSpace=wrap;" parent="8mnbJYgUBYlNlU0uqv1t-6" vertex="1">
          <mxGeometry y="107.5" width="160" height="105" as="geometry" />
        </mxCell>
        <mxCell id="8mnbJYgUBYlNlU0uqv1t-9" value="&lt;font style=&quot;font-size: 12px;&quot;&gt;&lt;b style=&quot;&quot;&gt;Run&lt;br&gt;best _model&lt;/b&gt;&lt;/font&gt;" style="rounded=0;whiteSpace=wrap;html=1;" parent="8mnbJYgUBYlNlU0uqv1t-6" vertex="1">
          <mxGeometry x="476" y="80" width="90" height="40" as="geometry" />
        </mxCell>
        <mxCell id="8mnbJYgUBYlNlU0uqv1t-10" value="" style="endArrow=classic;html=1;rounded=0;exitX=1;exitY=0.5;exitDx=0;exitDy=0;exitPerimeter=0;entryX=0;entryY=0.5;entryDx=0;entryDy=0;" parent="8mnbJYgUBYlNlU0uqv1t-6" source="8mnbJYgUBYlNlU0uqv1t-8" target="8mnbJYgUBYlNlU0uqv1t-15" edge="1">
          <mxGeometry width="50" height="50" relative="1" as="geometry">
            <mxPoint x="386" y="65" as="sourcePoint" />
            <mxPoint x="216" y="130" as="targetPoint" />
          </mxGeometry>
        </mxCell>
        <mxCell id="8mnbJYgUBYlNlU0uqv1t-11" value="" style="endArrow=classic;html=1;rounded=0;exitX=0.999;exitY=0.276;exitDx=0;exitDy=0;entryX=0;entryY=0;entryDx=0;entryDy=0;exitPerimeter=0;" parent="8mnbJYgUBYlNlU0uqv1t-6" source="8mnbJYgUBYlNlU0uqv1t-15" target="8mnbJYgUBYlNlU0uqv1t-41" edge="1">
          <mxGeometry width="50" height="50" relative="1" as="geometry">
            <mxPoint x="320" y="300" as="sourcePoint" />
            <mxPoint x="460" y="110" as="targetPoint" />
          </mxGeometry>
        </mxCell>
        <mxCell id="8mnbJYgUBYlNlU0uqv1t-12" value="&lt;font style=&quot;font-size: 12px;&quot;&gt;&lt;b style=&quot;&quot;&gt;Prediksi Data&lt;/b&gt;&lt;/font&gt;" style="rounded=0;whiteSpace=wrap;html=1;" parent="8mnbJYgUBYlNlU0uqv1t-6" vertex="1">
          <mxGeometry x="476" y="171" width="90" height="39" as="geometry" />
        </mxCell>
        <mxCell id="8mnbJYgUBYlNlU0uqv1t-13" value="" style="endArrow=classic;html=1;rounded=0;exitX=0.5;exitY=1;exitDx=0;exitDy=0;entryX=0.5;entryY=0;entryDx=0;entryDy=0;" parent="8mnbJYgUBYlNlU0uqv1t-6" source="8mnbJYgUBYlNlU0uqv1t-9" target="8mnbJYgUBYlNlU0uqv1t-12" edge="1">
          <mxGeometry width="50" height="50" relative="1" as="geometry">
            <mxPoint x="446" y="170" as="sourcePoint" />
            <mxPoint x="486" y="170" as="targetPoint" />
          </mxGeometry>
        </mxCell>
        <mxCell id="8mnbJYgUBYlNlU0uqv1t-14" value="" style="group" parent="8mnbJYgUBYlNlU0uqv1t-6" vertex="1" connectable="0">
          <mxGeometry x="216" y="60" width="220" height="190" as="geometry" />
        </mxCell>
        <mxCell id="8mnbJYgUBYlNlU0uqv1t-15" value="" style="rounded=0;whiteSpace=wrap;html=1;" parent="8mnbJYgUBYlNlU0uqv1t-14" vertex="1">
          <mxGeometry y="10" width="220" height="180" as="geometry" />
        </mxCell>
        <mxCell id="8mnbJYgUBYlNlU0uqv1t-16" value="&lt;font style=&quot;font-size: 14px;&quot;&gt;&lt;b&gt;Preprocessing&lt;/b&gt;&lt;/font&gt;" style="text;strokeColor=none;align=center;fillColor=#99FFCC;html=1;verticalAlign=middle;whiteSpace=wrap;rounded=0;" parent="8mnbJYgUBYlNlU0uqv1t-14" vertex="1">
          <mxGeometry x="45" width="130" height="30" as="geometry" />
        </mxCell>
        <mxCell id="8mnbJYgUBYlNlU0uqv1t-17" value="&lt;font style=&quot;font-size: 12px;&quot;&gt;&lt;b style=&quot;&quot;&gt;Load Data Sumber&lt;/b&gt;&lt;/font&gt;" style="rounded=0;whiteSpace=wrap;html=1;" parent="8mnbJYgUBYlNlU0uqv1t-14" vertex="1">
          <mxGeometry x="50" y="40" width="120" height="20" as="geometry" />
        </mxCell>
        <mxCell id="8mnbJYgUBYlNlU0uqv1t-18" value="&lt;div&gt;&lt;font style=&quot;font-size: 12px;&quot;&gt;&lt;b&gt;Imputasi&lt;/b&gt;&lt;/font&gt;&lt;/div&gt;" style="rounded=0;whiteSpace=wrap;html=1;" parent="8mnbJYgUBYlNlU0uqv1t-14" vertex="1">
          <mxGeometry x="50" y="78" width="120" height="20" as="geometry" />
        </mxCell>
        <mxCell id="8mnbJYgUBYlNlU0uqv1t-19" value="&lt;b&gt;Missing Value&lt;/b&gt;" style="rounded=0;whiteSpace=wrap;html=1;" parent="8mnbJYgUBYlNlU0uqv1t-14" vertex="1">
          <mxGeometry x="50" y="116" width="120" height="20" as="geometry" />
        </mxCell>
        <mxCell id="8mnbJYgUBYlNlU0uqv1t-20" value="&lt;b&gt;Setup Library&lt;/b&gt;" style="rounded=0;whiteSpace=wrap;html=1;" parent="8mnbJYgUBYlNlU0uqv1t-14" vertex="1">
          <mxGeometry x="50" y="154" width="120" height="20" as="geometry" />
        </mxCell>
        <mxCell id="8mnbJYgUBYlNlU0uqv1t-21" value="" style="html=1;shadow=0;dashed=0;align=center;verticalAlign=middle;shape=mxgraph.arrows2.uTurnArrow;dy=11;arrowHead=43;dx2=25;rotation=90;direction=south;fillColor=#99FFCC;" parent="8mnbJYgUBYlNlU0uqv1t-14" vertex="1">
          <mxGeometry x="150" y="55" width="70" height="39" as="geometry" />
        </mxCell>
        <mxCell id="8mnbJYgUBYlNlU0uqv1t-22" value="" style="html=1;shadow=0;dashed=0;align=center;verticalAlign=middle;shape=mxgraph.arrows2.uTurnArrow;dy=11;arrowHead=43;dx2=25;rotation=90;direction=south;flipH=0;flipV=1;fillColor=#99FFCC;" parent="8mnbJYgUBYlNlU0uqv1t-14" vertex="1">
          <mxGeometry y="93" width="70" height="39" as="geometry" />
        </mxCell>
        <mxCell id="8mnbJYgUBYlNlU0uqv1t-23" value="" style="html=1;shadow=0;dashed=0;align=center;verticalAlign=middle;shape=mxgraph.arrows2.uTurnArrow;dy=11;arrowHead=43;dx2=25;rotation=90;direction=south;fillColor=#99FFCC;" parent="8mnbJYgUBYlNlU0uqv1t-14" vertex="1">
          <mxGeometry x="150" y="131" width="70" height="39" as="geometry" />
        </mxCell>
        <mxCell id="8mnbJYgUBYlNlU0uqv1t-24" value="" style="endArrow=classic;html=1;rounded=0;exitX=1;exitY=0;exitDx=0;exitDy=0;entryX=0;entryY=0.5;entryDx=0;entryDy=0;" parent="8mnbJYgUBYlNlU0uqv1t-6" source="8mnbJYgUBYlNlU0uqv1t-31" target="8mnbJYgUBYlNlU0uqv1t-26" edge="1">
          <mxGeometry width="50" height="50" relative="1" as="geometry">
            <mxPoint x="446" y="170" as="sourcePoint" />
            <mxPoint x="486" y="120" as="targetPoint" />
          </mxGeometry>
        </mxCell>
        <mxCell id="8mnbJYgUBYlNlU0uqv1t-25" value="" style="group" parent="8mnbJYgUBYlNlU0uqv1t-6" vertex="1" connectable="0">
          <mxGeometry x="606" y="143" width="240" height="190" as="geometry" />
        </mxCell>
        <mxCell id="8mnbJYgUBYlNlU0uqv1t-26" value="" style="rounded=0;whiteSpace=wrap;html=1;" parent="8mnbJYgUBYlNlU0uqv1t-25" vertex="1">
          <mxGeometry y="10" width="240" height="110" as="geometry" />
        </mxCell>
        <mxCell id="8mnbJYgUBYlNlU0uqv1t-27" value="&lt;span style=&quot;font-size: 14px;&quot;&gt;&lt;b&gt;Evaluasi Model&lt;/b&gt;&lt;/span&gt;" style="text;strokeColor=none;align=center;fillColor=#99FFCC;html=1;verticalAlign=middle;whiteSpace=wrap;rounded=0;" parent="8mnbJYgUBYlNlU0uqv1t-25" vertex="1">
          <mxGeometry x="45" width="130" height="30" as="geometry" />
        </mxCell>
        <mxCell id="8mnbJYgUBYlNlU0uqv1t-28" value="&lt;font style=&quot;font-size: 12px;&quot;&gt;&lt;b style=&quot;&quot;&gt;Parameter&lt;/b&gt;&lt;/font&gt;" style="rounded=0;whiteSpace=wrap;html=1;" parent="8mnbJYgUBYlNlU0uqv1t-25" vertex="1">
          <mxGeometry x="40" y="40" width="140" height="20" as="geometry" />
        </mxCell>
        <mxCell id="8mnbJYgUBYlNlU0uqv1t-29" value="&lt;div&gt;&lt;font style=&quot;font-size: 12px;&quot;&gt;&lt;b&gt;Simpan Model&lt;/b&gt;&lt;/font&gt;&lt;/div&gt;" style="rounded=0;whiteSpace=wrap;html=1;" parent="8mnbJYgUBYlNlU0uqv1t-25" vertex="1">
          <mxGeometry x="40" y="78" width="140" height="20" as="geometry" />
        </mxCell>
        <mxCell id="8mnbJYgUBYlNlU0uqv1t-30" value="" style="html=1;shadow=0;dashed=0;align=center;verticalAlign=middle;shape=mxgraph.arrows2.uTurnArrow;dy=11;arrowHead=43;dx2=25;rotation=90;direction=south;fillColor=#99FFCC;" parent="8mnbJYgUBYlNlU0uqv1t-25" vertex="1">
          <mxGeometry x="161" y="55" width="70" height="39" as="geometry" />
        </mxCell>
        <mxCell id="8mnbJYgUBYlNlU0uqv1t-31" value="&lt;font style=&quot;font-size: 12px;&quot;&gt;&lt;b style=&quot;&quot;&gt;Target&lt;/b&gt;&lt;/font&gt;" style="rounded=0;whiteSpace=wrap;html=1;" parent="8mnbJYgUBYlNlU0uqv1t-6" vertex="1">
          <mxGeometry x="476" y="208.5" width="90" height="39" as="geometry" />
        </mxCell>
        <mxCell id="8mnbJYgUBYlNlU0uqv1t-32" value="" style="group" parent="8mnbJYgUBYlNlU0uqv1t-6" vertex="1" connectable="0">
          <mxGeometry x="606" width="240" height="190" as="geometry" />
        </mxCell>
        <mxCell id="8mnbJYgUBYlNlU0uqv1t-33" value="" style="rounded=0;whiteSpace=wrap;html=1;" parent="8mnbJYgUBYlNlU0uqv1t-32" vertex="1">
          <mxGeometry y="10" width="240" height="110" as="geometry" />
        </mxCell>
        <mxCell id="8mnbJYgUBYlNlU0uqv1t-34" value="&lt;span style=&quot;font-size: 14px;&quot;&gt;&lt;b&gt;Tuning Model&lt;/b&gt;&lt;/span&gt;" style="text;strokeColor=none;align=center;fillColor=#99FFCC;html=1;verticalAlign=middle;whiteSpace=wrap;rounded=0;" parent="8mnbJYgUBYlNlU0uqv1t-32" vertex="1">
          <mxGeometry x="45" width="130" height="30" as="geometry" />
        </mxCell>
        <mxCell id="8mnbJYgUBYlNlU0uqv1t-35" value="&lt;font style=&quot;font-size: 12px;&quot;&gt;&lt;b style=&quot;&quot;&gt;Parameter&lt;/b&gt;&lt;/font&gt;" style="rounded=0;whiteSpace=wrap;html=1;" parent="8mnbJYgUBYlNlU0uqv1t-32" vertex="1">
          <mxGeometry x="40" y="40" width="140" height="20" as="geometry" />
        </mxCell>
        <mxCell id="8mnbJYgUBYlNlU0uqv1t-36" value="&lt;div&gt;&lt;font style=&quot;font-size: 12px;&quot;&gt;&lt;b&gt;Simpan Model&lt;/b&gt;&lt;/font&gt;&lt;/div&gt;" style="rounded=0;whiteSpace=wrap;html=1;" parent="8mnbJYgUBYlNlU0uqv1t-32" vertex="1">
          <mxGeometry x="40" y="78" width="140" height="20" as="geometry" />
        </mxCell>
        <mxCell id="8mnbJYgUBYlNlU0uqv1t-37" value="" style="html=1;shadow=0;dashed=0;align=center;verticalAlign=middle;shape=mxgraph.arrows2.uTurnArrow;dy=11;arrowHead=43;dx2=25;rotation=90;direction=south;fillColor=#99FFCC;" parent="8mnbJYgUBYlNlU0uqv1t-32" vertex="1">
          <mxGeometry x="161" y="55" width="70" height="39" as="geometry" />
        </mxCell>
        <mxCell id="8mnbJYgUBYlNlU0uqv1t-38" value="&lt;b&gt;&lt;font style=&quot;font-size: 12px;&quot;&gt;Mulai&lt;/font&gt;&lt;/b&gt;" style="ellipse;whiteSpace=wrap;html=1;" parent="8mnbJYgUBYlNlU0uqv1t-6" vertex="1">
          <mxGeometry x="22.5" y="10" width="115" height="70" as="geometry" />
        </mxCell>
        <mxCell id="8mnbJYgUBYlNlU0uqv1t-40" value="" style="endArrow=classic;html=1;rounded=0;entryX=0.5;entryY=0;entryDx=0;entryDy=0;entryPerimeter=0;" parent="8mnbJYgUBYlNlU0uqv1t-6" target="8mnbJYgUBYlNlU0uqv1t-8" edge="1">
          <mxGeometry width="50" height="50" relative="1" as="geometry">
            <mxPoint x="80" y="80" as="sourcePoint" />
            <mxPoint x="60" y="120" as="targetPoint" />
          </mxGeometry>
        </mxCell>
        <mxCell id="8mnbJYgUBYlNlU0uqv1t-41" value="&lt;font style=&quot;font-size: 12px;&quot;&gt;&lt;b style=&quot;&quot;&gt;create_model&lt;/b&gt;&lt;/font&gt;" style="rounded=0;whiteSpace=wrap;html=1;" parent="8mnbJYgUBYlNlU0uqv1t-6" vertex="1">
          <mxGeometry x="476" y="120" width="90" height="29" as="geometry" />
        </mxCell>
        <mxCell id="IPi25svuxuGSsvK6va6Q-1" value="&lt;font style=&quot;font-size: 12px;&quot;&gt;&lt;b style=&quot;&quot;&gt;Prediksi Data&lt;/b&gt;&lt;/font&gt;" style="rounded=0;whiteSpace=wrap;html=1;" vertex="1" parent="8mnbJYgUBYlNlU0uqv1t-44">
          <mxGeometry x="901.5" y="28" width="90" height="39" as="geometry" />
        </mxCell>
        <mxCell id="IPi25svuxuGSsvK6va6Q-2" value="&lt;font style=&quot;font-size: 12px;&quot;&gt;&lt;b style=&quot;&quot;&gt;Target&lt;/b&gt;&lt;/font&gt;" style="rounded=0;whiteSpace=wrap;html=1;" vertex="1" parent="8mnbJYgUBYlNlU0uqv1t-44">
          <mxGeometry x="901.5" y="65.5" width="90" height="39" as="geometry" />
        </mxCell>
        <mxCell id="IPi25svuxuGSsvK6va6Q-3" value="" style="endArrow=classic;html=1;rounded=0;exitX=1;exitY=0.5;exitDx=0;exitDy=0;entryX=0;entryY=0;entryDx=0;entryDy=0;" edge="1" parent="8mnbJYgUBYlNlU0uqv1t-44" source="8mnbJYgUBYlNlU0uqv1t-33" target="IPi25svuxuGSsvK6va6Q-2">
          <mxGeometry width="50" height="50" relative="1" as="geometry">
            <mxPoint x="860" y="40" as="sourcePoint" />
            <mxPoint x="910" y="-10" as="targetPoint" />
          </mxGeometry>
        </mxCell>
        <mxCell id="8mnbJYgUBYlNlU0uqv1t-42" value="&lt;b&gt;Selesai&lt;/b&gt;" style="ellipse;whiteSpace=wrap;html=1;" parent="8mnbJYgUBYlNlU0uqv1t-44" vertex="1">
          <mxGeometry x="889" y="140" width="115" height="70" as="geometry" />
        </mxCell>
        <mxCell id="IPi25svuxuGSsvK6va6Q-4" value="" style="endArrow=classic;html=1;rounded=0;entryX=0.5;entryY=0;entryDx=0;entryDy=0;exitX=0.5;exitY=1;exitDx=0;exitDy=0;" edge="1" parent="8mnbJYgUBYlNlU0uqv1t-44" source="IPi25svuxuGSsvK6va6Q-2" target="8mnbJYgUBYlNlU0uqv1t-42">
          <mxGeometry width="50" height="50" relative="1" as="geometry">
            <mxPoint x="860" y="120" as="sourcePoint" />
            <mxPoint x="910" y="70" as="targetPoint" />
          </mxGeometry>
        </mxCell>
      </root>
    </mxGraphModel>
  </diagram>
</mxfile>
